<svg xmlns:rdf="http://www.w3.org/1999/02/22-rdf-syntax-ns#" xmlns="http://www.w3.org/2000/svg" version="1.1" xmlns:cc="http://creativecommons.org/ns#" xmlns:dc="http://purl.org/dc/elements/1.1/" viewBox="0 0 15 15">
<g transform="translate(0 -1037.4)" stroke="#039">
<path stroke-linejoin="round" d="m14.069 1044.8c0.09811 5.1481-1.613 6.5429-6.5429 6.5429-5.1622 0-6.5429-1.4969-6.5429-6.5429 0-5.3041 1.3808-6.5429 6.5429-6.5429 5.2008 0 6.444 1.3547 6.5429 6.5429z" stroke-width="1.7344" fill="#fff"/>
<path d="m5.8057 1041.6h1.2211l-0.00531 5.5291h0.75392l-0.00531-5.5291h1.2211l-1.5928-1.5928zm-1.5928 4.7784 0.000002-1.2212 5.5291 0.01 0.0000017-0.754-5.5291 0.01 0.0000021-1.2211-1.5928 1.5926zm4.7784 1.5927h-1.2211l0.00531-1.5292h-0.75392l0.00531 1.5292h-1.2211l1.5928 1.5928zm1.5928-4.7784-0.000002 1.2212-1.5291-0.01-0.0000015 0.754 1.5291-0.01-0.000003 1.2212 1.5928-1.5928z" clip-path="url(#b)" stroke-width=".5" fill="#039"/>
</g>
</svg>
